<?xml version="1.0" standalone="no"?>
<!DOCTYPE svg PUBLIC "-//W3C//DTD SVG 20010904//EN"
 "http://www.w3.org/TR/2001/REC-SVG-20010904/DTD/svg10.dtd">
<svg version="1.0" xmlns="http://www.w3.org/2000/svg"
 width="260.000000pt" height="260.000000pt" viewBox="0 0 260.000000 260.000000"
 preserveAspectRatio="xMidYMid meet">
<metadata>
Created by potrace 1.14, written by Peter Selinger 2001-2017
</metadata>
<g transform="translate(0.000000,260.000000) scale(0.100000,-0.100000)"
fill="#000000" stroke="none">
<path d="M353 2585 c0 -8 5 -15 11 -15 7 0 7 -3 1 -8 -14 -10 -17 -32 -4 -32
8 0 8 -5 -1 -15 -10 -12 -10 -15 1 -15 11 0 11 -2 -1 -10 -13 -9 -13 -12 3
-21 9 -6 14 -15 11 -21 -4 -7 -2 -8 4 -4 7 4 12 2 12 -4 0 -6 4 -9 9 -6 5 3
12 -1 15 -10 4 -10 2 -13 -6 -8 -7 5 -8 3 -4 -5 5 -7 15 -10 23 -7 8 3 11 1 8
-4 -3 -6 -1 -10 4 -10 15 0 14 -43 -1 -59 -9 -9 -9 -12 -1 -7 6 3 18 0 25 -8
8 -8 23 -16 34 -19 18 -4 18 -5 -1 -6 -17 -1 -18 -3 -5 -11 11 -7 11 -10 2
-10 -7 0 -11 -4 -8 -8 2 -4 -4 -9 -15 -9 -11 -1 -17 3 -13 9 4 6 -2 6 -15 -1
-22 -12 -45 -6 -36 9 3 4 2 15 -1 24 -5 12 -10 14 -19 6 -15 -12 -26 -3 -18
16 3 9 -2 14 -13 15 -12 0 -14 3 -6 6 10 4 9 8 -5 18 -12 9 -23 10 -35 4 -10
-5 -18 -7 -18 -3 0 3 -6 1 -14 -5 -15 -12 -16 -28 -3 -48 6 -9 2 -13 -10 -13
-17 -1 -17 -1 0 -11 18 -10 18 -11 0 -26 -10 -8 -12 -12 -5 -8 8 4 12 -1 12
-14 0 -12 6 -21 14 -21 12 0 27 -21 30 -42 1 -3 5 -10 10 -15 5 -5 6 -3 2 5
-4 6 -3 12 2 12 6 0 13 -7 16 -16 3 -9 11 -12 18 -8 10 6 10 5 0 -8 -10 -13
-9 -18 5 -29 9 -8 14 -9 10 -3 -4 7 0 14 8 17 10 4 12 1 8 -10 -4 -11 -3 -14
5 -9 19 12 52 -4 52 -24 0 -22 16 -35 25 -20 4 6 13 7 23 2 19 -9 54 -8 71 2
6 4 11 2 11 -4 0 -6 4 -9 9 -6 13 8 42 -4 35 -15 -3 -5 2 -9 11 -9 10 0 13 -5
9 -12 -5 -8 -2 -9 10 -5 10 4 15 3 11 -3 -3 -6 0 -10 7 -10 9 0 9 -3 -2 -10
-13 -9 -13 -10 0 -10 13 0 13 -2 1 -9 -8 -5 -21 -7 -29 -3 -11 4 -13 2 -7 -9
8 -12 6 -12 -8 -1 -14 12 -19 10 -39 -9 -13 -12 -16 -18 -8 -14 13 8 13 7 1
-9 -8 -9 -20 -15 -27 -12 -8 3 -13 2 -12 -2 1 -4 -2 -17 -6 -30 -7 -20 -10
-21 -24 -10 -10 8 -13 9 -9 1 4 -6 3 -14 -3 -18 -14 -9 -13 -48 3 -64 9 -11 9
-13 0 -7 -7 4 -13 2 -13 -3 0 -10 14 -15 34 -12 4 1 14 -4 22 -10 12 -9 13 -9
8 4 -6 16 10 18 34 4 7 -5 12 -4 12 2 0 6 3 10 8 10 20 -3 30 3 28 19 0 9 5
16 12 14 6 -1 12 3 12 9 0 5 4 8 9 5 4 -3 8 4 7 17 -1 23 19 30 40 15 7 -5 21
0 35 12 13 10 20 19 14 20 -5 0 1 7 13 16 12 8 27 12 32 9 6 -4 23 -8 38 -11
22 -4 24 -2 12 7 -13 9 -12 10 3 5 10 -3 23 -6 27 -6 5 0 7 -9 5 -20 -3 -17 7
-27 18 -17 1 1 10 -5 19 -13 11 -11 12 -17 4 -22 -7 -5 -4 -8 7 -8 11 0 15 -4
11 -12 -5 -7 -2 -9 8 -5 11 4 18 -1 22 -16 3 -12 15 -26 27 -32 32 -14 34 -44
3 -40 -21 2 -22 0 -12 -13 11 -13 10 -15 -6 -9 -17 7 -17 6 -5 -10 9 -11 10
-14 1 -9 -7 4 -15 1 -18 -8 -3 -9 -10 -14 -14 -11 -9 6 -26 -34 -21 -50 1 -5
-3 -5 -10 2 -6 6 -18 9 -26 6 -11 -4 -13 3 -10 35 3 23 9 46 13 53 4 8 3 9 -4
5 -15 -9 -15 -1 -1 26 8 15 8 19 0 14 -15 -10 -14 7 1 22 9 9 9 12 -1 12 -7 0
-9 5 -6 10 3 6 -2 10 -12 11 -10 0 -28 2 -40 5 -25 4 -37 -9 -42 -46 -1 -12
-23 -9 -34 5 -5 6 -7 3 -3 -7 6 -19 -42 -75 -59 -70 -5 2 -2 -5 6 -15 18 -21
14 -49 -7 -57 -19 -7 -36 2 -29 15 4 5 1 9 -5 9 -7 0 -10 6 -7 14 4 10 0 12
-14 9 -17 -5 -23 4 -21 28 0 3 -8 11 -20 18 -11 7 -17 8 -13 2 7 -12 -29 -10
-41 2 -4 4 -18 0 -30 -8 -16 -10 -22 -11 -19 -3 3 8 -4 13 -19 13 -13 0 -22
-3 -19 -7 2 -5 0 -8 -6 -8 -5 0 -12 4 -16 10 -3 5 -12 7 -20 4 -8 -4 -12 -11
-8 -17 4 -7 0 -8 -12 -3 -15 5 -16 4 -5 -9 11 -14 7 -19 -12 -16 -5 0 -8 -4
-8 -10 0 -5 -4 -8 -9 -4 -5 3 -12 1 -16 -5 -3 -5 -1 -10 6 -10 8 0 8 -4 -1
-15 -12 -14 -7 -20 14 -16 4 1 15 -6 23 -16 8 -10 11 -12 7 -4 -4 9 -3 12 4 7
6 -4 9 -13 5 -21 -3 -10 1 -15 13 -15 9 0 15 -3 11 -6 -10 -10 22 -36 34 -28
7 4 9 3 6 -3 -4 -6 0 -13 8 -17 8 -3 15 -2 15 2 0 4 11 8 25 8 14 1 22 -2 19
-8 -4 -6 3 -5 15 1 16 9 21 9 21 0 0 -8 5 -7 17 2 11 10 14 10 9 2 -4 -7 -3
-13 3 -13 5 0 12 5 14 10 3 6 4 5 3 -2 -2 -7 1 -25 5 -40 5 -17 4 -28 -2 -28
-6 0 -8 -4 -5 -8 2 -4 1 -14 -5 -22 -6 -10 -9 -11 -9 -3 0 7 -6 12 -12 10 -7
-1 -12 5 -12 14 1 10 -9 22 -22 28 -18 8 -24 8 -24 -1 0 -7 -7 -3 -15 8 -13
16 -14 16 -9 1 5 -15 3 -16 -17 -9 -17 6 -28 4 -39 -7 -20 -22 -21 -71 -1 -71
14 0 14 -1 1 -10 -12 -8 -11 -10 6 -10 21 0 39 -24 29 -39 -2 -4 2 -8 10 -9 8
-1 22 -3 30 -4 8 -1 11 -6 7 -12 -4 -6 -7 -14 -8 -18 -1 -5 -2 -11 -3 -14 0
-4 -8 -1 -16 6 -13 11 -14 10 -9 -5 6 -14 4 -16 -7 -10 -8 4 -11 5 -7 0 4 -4
3 -14 -3 -22 -9 -9 -8 -13 0 -13 6 0 11 -5 11 -11 0 -5 -4 -7 -10 -4 -6 3 -7
-1 -4 -9 3 -9 10 -13 15 -10 5 3 6 -2 3 -11 -7 -16 19 -17 45 -1 10 7 12 5 6
-4 -5 -8 -3 -11 6 -8 8 3 14 11 14 19 1 8 6 13 13 12 6 -2 9 4 6 12 -4 11 1
15 16 15 17 0 21 4 17 20 -3 11 -1 18 4 14 5 -3 9 0 9 5 0 6 6 10 13 8 6 -1
11 6 11 15 -1 10 2 15 7 12 5 -3 12 2 15 10 3 9 12 16 19 16 8 0 17 5 21 12 4
7 3 8 -4 4 -8 -5 -10 -1 -6 9 4 9 13 14 21 11 8 -3 11 -1 8 4 -3 6 -1 10 4 10
6 0 11 -6 11 -12 0 -9 3 -9 9 1 8 12 12 12 25 -2 9 -8 16 -20 16 -25 0 -5 12
-14 26 -20 18 -9 24 -17 19 -31 -4 -14 -1 -18 17 -17 13 0 26 6 30 11 5 6 8 5
8 -2 0 -7 9 -13 20 -13 11 0 20 -5 20 -11 0 -5 -6 -7 -12 -3 -10 6 -10 5 -1
-8 15 -17 7 -29 -13 -21 -8 3 -14 0 -14 -7 0 -6 -4 -9 -9 -6 -5 4 -7 -4 -4
-15 5 -19 3 -21 -20 -17 -15 3 -24 1 -21 -3 9 -15 -15 -10 -35 8 -11 9 -17 21
-14 26 3 6 1 7 -5 3 -7 -4 -12 -3 -12 2 0 6 -7 13 -16 16 -8 3 -12 2 -9 -4 9
-14 -8 -12 -24 2 -9 8 -11 8 -8 2 4 -7 0 -15 -9 -18 -8 -3 -12 -2 -9 4 3 6 -3
10 -14 10 -12 0 -21 -5 -21 -11 0 -5 -5 -7 -11 -3 -8 4 -8 1 -1 -13 7 -12 7
-25 1 -36 -8 -13 -6 -17 8 -17 12 0 14 -3 6 -8 -9 -6 -6 -11 8 -21 16 -9 19
-9 14 0 -6 8 -4 10 4 5 7 -5 10 -15 6 -24 -3 -9 -3 -13 1 -9 9 9 45 -33 38
-44 -3 -5 1 -6 9 -3 8 3 18 0 23 -7 4 -8 3 -10 -4 -5 -7 4 -12 3 -12 -2 0 -5
13 -9 30 -9 16 0 27 4 24 9 -3 4 2 5 10 2 15 -6 17 -18 19 -89 1 -23 37 -30
37 -7 0 10 4 10 16 -2 15 -16 39 -13 29 4 -3 5 -1 11 5 15 6 4 8 10 5 15 -3 4
2 10 10 14 8 3 15 1 15 -5 0 -6 3 -8 8 -6 4 3 8 -15 9 -40 0 -25 7 -50 13 -56
10 -9 11 -9 5 1 -6 11 -3 11 13 1 16 -10 18 -18 12 -45 -9 -37 -5 -44 22 -44
11 0 18 -7 18 -19 0 -11 5 -23 10 -26 8 -5 8 -11 1 -19 -6 -7 -8 -16 -4 -19 3
-4 1 -7 -6 -7 -7 0 -10 -4 -6 -9 3 -6 -3 -8 -14 -6 -15 3 -19 -1 -16 -17 3
-14 0 -18 -10 -14 -8 3 -14 0 -12 -7 1 -7 -5 -10 -13 -9 -8 2 -12 1 -8 -3 4
-4 0 -14 -8 -22 -8 -8 -12 -19 -9 -24 4 -5 -2 -6 -11 -2 -12 4 -15 3 -10 -5 4
-7 3 -12 -2 -12 -5 0 -12 -11 -14 -25 -3 -14 -1 -22 5 -18 5 3 7 0 5 -8 -3 -8
-10 -13 -16 -12 -6 2 -9 -3 -6 -10 5 -15 -30 -17 -43 -2 -5 4 -2 5 6 0 10 -6
12 -4 6 5 -6 10 -11 9 -22 -5 -7 -11 -13 -22 -13 -26 0 -4 -12 -14 -26 -24
-15 -9 -24 -13 -20 -7 3 5 -3 12 -14 15 -11 3 -18 1 -14 -4 3 -5 0 -9 -6 -9
-6 0 -8 -4 -5 -10 3 -5 -1 -10 -10 -10 -9 0 -13 -4 -10 -10 3 -5 1 -10 -5 -10
-6 0 -9 -4 -6 -9 4 -5 -3 -7 -13 -4 -14 3 -19 0 -18 -14 3 -28 20 -43 35 -30
7 6 12 6 11 1 -2 -5 1 -20 5 -32 6 -19 13 -22 33 -17 13 3 22 2 19 -3 -3 -5 1
-9 9 -9 8 0 12 4 9 9 -8 13 10 10 25 -5 11 -9 13 -9 7 0 -9 16 -5 16 30 3 22
-9 25 -8 16 3 -8 10 -7 13 8 13 10 0 17 -4 14 -7 -2 -4 9 -7 24 -7 24 1 28 4
24 21 -4 15 -2 18 8 12 10 -6 12 -4 7 7 -6 17 8 19 32 4 10 -6 12 -5 7 2 -11
19 5 14 20 -5 13 -17 14 -17 8 2 -5 18 -4 18 6 2 6 -9 8 -22 4 -29 -4 -7 -3
-8 4 -4 8 4 12 0 12 -11 0 -11 3 -14 8 -7 5 9 10 8 19 -1 10 -11 10 -15 0 -18
-8 -4 -8 -6 2 -6 11 -1 11 -4 1 -16 -7 -9 -8 -15 -2 -15 5 0 9 -8 8 -17 0 -12
7 -19 22 -21 12 -2 22 -8 22 -13 0 -6 -6 -7 -12 -3 -10 6 -10 4 -2 -7 6 -8 10
-24 9 -36 -1 -13 2 -23 7 -23 5 0 6 -4 3 -10 -4 -6 1 -7 11 -3 13 5 15 3 9 -7
-6 -10 -4 -12 7 -7 11 4 14 1 11 -12 -3 -12 2 -20 16 -24 12 -3 21 -1 21 4 0
4 7 6 15 3 8 -4 12 -11 8 -17 -3 -6 -1 -7 6 -3 6 4 9 11 6 16 -3 4 2 11 11 14
9 4 14 9 11 13 -4 3 8 20 26 37 17 17 31 35 29 40 -2 5 5 3 14 -5 13 -10 16
-10 10 -1 -9 16 12 44 27 35 6 -3 7 -1 3 5 -7 11 6 17 27 13 5 -1 6 3 2 9 -3
6 -12 8 -18 4 -7 -3 -4 1 6 9 10 9 18 18 17 22 -1 4 2 10 6 13 4 4 4 1 0 -5
-9 -17 2 -17 17 -1 15 16 18 48 6 48 -6 0 -5 9 1 20 6 12 7 20 1 20 -5 0 -7 9
-4 20 3 11 10 20 15 20 5 0 7 4 4 8 -3 5 9 8 26 7 34 -2 59 -28 51 -53 -4 -13
-3 -14 5 -3 6 9 12 10 16 3 9 -15 38 -3 29 12 -3 6 2 4 13 -5 10 -8 31 -14 47
-13 15 2 25 -1 22 -6 -12 -19 8 -40 34 -37 14 3 34 0 45 -5 13 -7 16 -7 12 1
-10 15 7 14 23 -1 9 -9 12 -9 7 -1 -3 6 0 18 8 26 8 8 12 17 9 20 -3 4 4 4 17
2 17 -3 20 -2 10 10 -8 10 -8 15 1 21 8 5 10 3 4 -7 -5 -8 -4 -10 0 -6 5 4 10
15 11 23 2 11 -3 14 -17 11 -10 -3 -17 -2 -14 3 5 9 -34 56 -44 53 -4 -1 -13
8 -21 20 -12 21 -12 21 6 7 18 -14 18 -14 5 3 -8 10 -20 16 -28 13 -8 -3 -11
-1 -8 4 3 6 1 10 -4 10 -6 0 -11 7 -11 15 0 8 -5 15 -11 15 -5 0 -7 5 -4 10 8
13 -17 8 -27 -5 -5 -6 -11 -5 -16 3 -5 7 -16 10 -26 6 -16 -6 -17 -4 -8 13 7
12 7 24 2 29 -16 16 0 56 21 51 10 -3 20 2 23 10 4 9 2 12 -7 7 -9 -6 -9 -4 1
8 14 17 0 34 -18 23 -5 -3 -10 1 -10 10 0 9 -4 13 -10 10 -6 -3 -7 1 -4 9 4
11 0 16 -11 16 -10 0 -13 5 -9 12 5 7 3 8 -7 2 -18 -11 -71 -15 -65 -5 3 4 -1
8 -9 8 -8 0 -12 -4 -9 -9 3 -4 1 -8 -4 -8 -6 0 -12 7 -16 15 -3 8 0 15 7 15 8
0 7 3 -2 9 -12 8 -9 11 11 16 19 5 27 15 30 36 3 17 0 29 -6 29 -6 0 -4 5 4
10 8 5 10 10 5 10 -6 0 -10 12 -9 27 0 17 8 29 23 35 14 5 20 12 15 20 -5 8 0
7 11 -2 12 -10 16 -10 11 -2 -4 7 -9 38 -11 68 -2 30 -5 58 -8 60 -14 14 -44
9 -67 -10 -14 -11 -19 -14 -12 -6 6 8 12 18 12 24 0 5 -6 1 -14 -9 -8 -11 -12
-24 -9 -31 5 -14 -24 -27 -32 -15 -3 5 -14 7 -25 4 -11 -3 -17 -9 -14 -14 3
-5 0 -9 -5 -9 -6 0 -11 -6 -11 -14 0 -24 -29 -27 -41 -4 -9 16 -8 19 3 12 11
-6 11 -5 -1 9 -8 11 -9 17 -2 17 7 0 8 8 2 23 -11 30 2 72 21 71 11 -1 14 4
11 14 -4 10 -2 13 5 8 11 -6 16 5 13 26 0 4 8 5 19 3 13 -3 17 1 13 11 -3 8 0
14 7 14 9 0 9 4 2 13 -8 9 -4 12 14 13 15 1 22 -2 17 -10 -4 -8 -2 -8 7 1 7 6
19 9 27 6 7 -3 13 -2 12 3 -4 21 2 28 11 14 8 -12 10 -10 8 10 -3 22 0 24 33
23 26 -1 39 4 48 19 10 15 10 18 0 13 -8 -6 -10 -4 -5 4 5 7 15 10 23 7 8 -3
12 -2 9 3 -3 5 1 12 10 15 8 3 13 10 10 15 -3 5 1 14 8 20 11 9 16 9 21 0 6
-8 9 -8 15 1 6 9 13 7 28 -6 12 -10 19 -21 16 -26 -3 -4 2 -8 10 -8 9 0 16 -6
16 -12 0 -9 4 -8 10 2 9 13 10 13 10 0 0 -12 2 -13 9 -1 5 7 14 10 20 7 6 -4
9 -12 6 -17 -4 -5 -1 -9 4 -9 6 0 11 -6 11 -13 0 -7 9 -13 20 -14 13 -1 18 2
13 10 -3 7 3 4 14 -6 14 -13 23 -15 28 -7 5 8 11 8 19 1 15 -13 26 -4 26 21 0
10 5 18 11 18 8 0 7 6 -2 17 -9 11 -10 14 -2 9 10 -5 11 -1 4 16 -6 16 -16 22
-30 21 -14 -2 -20 1 -16 8 8 13 -30 51 -41 41 -4 -4 -4 -1 0 6 9 14 -27 56
-38 45 -6 -6 -10 13 -7 30 1 5 -3 6 -9 2 -5 -3 -10 2 -10 12 0 15 -2 16 -10 3
-6 -10 -10 -11 -10 -2 0 6 -5 12 -11 12 -5 0 -8 -4 -5 -9 4 -5 -2 -8 -11 -6
-10 1 -17 10 -17 19 1 9 -2 16 -6 16 -12 0 -9 59 3 67 6 4 7 1 2 -8 -5 -8 1
-6 13 5 12 10 24 27 27 37 4 11 9 17 13 15 4 -2 13 2 20 10 10 11 10 14 0 14
-11 0 -11 2 0 9 8 4 11 19 8 34 -3 16 1 31 12 39 12 10 14 10 8 1 -4 -7 -3
-13 2 -13 13 0 24 29 15 42 -3 7 -1 8 5 4 7 -4 12 -2 12 4 0 8 6 7 21 -1 12
-6 19 -7 15 -1 -3 5 2 13 11 16 9 4 20 1 24 -5 4 -8 9 -1 11 17 2 17 9 29 18
29 8 0 21 4 27 8 9 6 11 3 6 -9 -5 -14 -3 -16 13 -9 10 5 29 9 42 9 14 1 22 7
22 19 0 9 5 17 11 17 5 0 7 4 4 10 -3 6 1 7 9 4 9 -3 16 -1 16 5 0 21 38 54
52 45 10 -6 10 -4 -1 9 -8 10 -9 17 -3 17 6 0 10 9 9 20 -1 11 -5 20 -9 20 -4
0 -8 10 -8 23 0 18 -2 19 -10 7 -8 -12 -10 -12 -10 5 -1 19 -1 19 -11 2 -8
-14 -14 -16 -25 -6 -8 6 -14 10 -15 8 0 -2 -3 -15 -5 -29 -3 -13 -10 -29 -16
-35 -8 -7 -9 -6 -5 1 4 7 0 15 -9 18 -9 3 -12 2 -8 -5 4 -7 -4 -10 -22 -7 -22
2 -29 -1 -29 -14 0 -10 -10 -25 -23 -33 -15 -11 -22 -12 -22 -4 0 8 -5 7 -17
-2 -11 -10 -14 -10 -9 -1 6 11 -4 16 -25 14 -4 -1 -5 7 -2 18 3 11 9 17 14 14
5 -3 9 0 9 6 0 7 6 10 14 7 10 -4 14 0 11 12 -2 9 6 23 17 30 15 10 18 10 13
0 -5 -8 -4 -10 3 -5 7 4 12 16 12 26 0 10 5 22 12 26 7 5 8 3 3 -6 -5 -9 -4
-11 3 -6 7 4 12 14 12 23 0 12 3 13 13 4 11 -8 13 -6 13 12 -1 13 4 21 12 19
6 -1 12 5 12 13 0 8 3 15 8 15 4 0 7 18 8 39 0 23 -4 37 -10 34 -5 -3 -6 -1
-2 6 4 6 2 19 -5 27 -10 12 -9 13 7 8 10 -4 16 -4 12 1 -17 18 -105 14 -93 -4
2 -5 -3 -17 -11 -27 -9 -10 -12 -12 -8 -4 6 12 5 13 -7 3 -12 -9 -18 -10 -27
-1 -8 8 -13 7 -18 -6 -5 -12 -10 -14 -19 -6 -9 8 -11 5 -8 -14 4 -17 0 -25
-16 -29 -12 -3 -21 -12 -21 -21 0 -9 -5 -16 -11 -16 -5 0 -8 -4 -5 -8 3 -5 -1
-9 -9 -9 -8 0 -12 4 -10 8 3 4 -3 10 -12 13 -14 6 -15 9 -3 16 11 7 11 11 1
23 -10 12 -7 19 18 37 27 18 30 26 27 61 -2 21 0 41 5 45 5 3 6 -3 3 -13 -5
-17 -5 -17 9 0 8 10 18 18 21 18 17 -2 19 0 8 11 -9 9 -8 16 6 32 9 11 12 16
5 12 -9 -5 -12 6 -10 43 l2 49 -30 -4 c-19 -2 -25 0 -16 5 9 6 10 11 2 15 -6
4 -8 12 -5 18 4 7 2 8 -4 4 -7 -4 -12 -2 -12 4 0 6 -4 9 -9 6 -5 -3 -12 6 -15
20 -5 19 -12 24 -28 22 -12 -2 -23 -9 -26 -17 -3 -9 0 -11 9 -7 8 4 6 1 -3 -7
-10 -8 -14 -18 -10 -23 4 -4 -2 -2 -12 6 -17 13 -18 13 -11 1 6 -11 4 -13 -9
-8 -12 5 -15 3 -10 -5 10 -16 11 -56 2 -71 -4 -6 -2 -17 4 -24 7 -9 7 -13 -1
-13 -7 0 -9 -5 -4 -12 11 -18 10 -32 -2 -40 -7 -5 -7 -8 1 -8 6 0 10 -14 9
-32 -1 -26 -6 -32 -26 -32 -21 -1 -25 2 -21 20 2 12 -2 25 -9 29 -7 5 -10 4
-5 -3 4 -7 -3 -8 -23 -2 -16 4 -32 6 -35 2 -3 -3 -7 0 -7 6 -3 21 -4 27 -13
40 -6 11 -11 11 -24 0 -9 -7 -13 -8 -9 -2 4 8 -3 11 -22 10 -19 0 -28 -5 -26
-16 1 -8 -2 -18 -7 -21 -6 -4 -6 -14 1 -28 9 -16 9 -21 0 -21 -8 0 -8 -4 1
-15 7 -9 8 -15 2 -15 -12 0 -10 -26 3 -37 4 -4 5 -2 1 5 -4 6 -2 12 3 12 6 0
11 -5 11 -11 0 -5 3 -8 8 -6 4 3 14 -2 22 -11 13 -14 12 -15 -5 -8 -18 7 -18
6 -1 -13 10 -11 23 -19 30 -18 6 1 10 -5 10 -14 -1 -10 9 -22 22 -28 18 -8 24
-8 24 2 0 8 4 7 10 -3 7 -11 10 -12 10 -2 0 11 3 10 14 -1 22 -22 17 -55 -8
-49 -15 4 -18 1 -13 -11 3 -9 3 -16 -1 -14 -4 1 -8 -2 -9 -7 -3 -16 -27 -25
-35 -13 -6 9 -10 9 -17 -1 -4 -8 -11 -13 -15 -13 -20 3 -26 -1 -26 -18 0 -11
-5 -23 -12 -27 -7 -5 -8 -3 -3 7 8 12 6 12 -8 0 -9 -7 -17 -19 -17 -26 0 -19
-27 -26 -40 -9 -7 8 -9 14 -5 14 4 0 1 8 -6 17 -11 13 -11 15 -1 9 17 -10 13
23 -5 42 -14 15 -27 16 -17 1 4 -8 1 -8 -12 -1 -11 5 -28 6 -39 1 -11 -4 -14
-8 -7 -8 8 -1 -3 -17 -23 -36 -22 -22 -33 -40 -29 -48 5 -6 -1 -5 -11 3 -11 9
-16 10 -11 3 4 -8 -2 -22 -16 -35 -25 -24 -54 -36 -43 -18 3 5 2 10 -3 10 -10
0 -9 24 2 58 5 15 13 21 22 18 9 -3 12 -1 9 4 -3 6 -1 10 4 10 6 0 10 3 10 8
-3 20 2 32 14 29 6 -1 11 4 9 11 -1 8 2 11 7 8 5 -3 15 2 22 11 10 11 10 14 2
9 -9 -5 -11 -2 -7 8 3 8 12 12 20 9 12 -4 20 18 12 30 -2 2 4 12 12 22 11 14
12 17 1 11 -9 -6 -12 -4 -9 5 3 8 14 19 26 25 13 6 26 15 30 19 4 5 0 4 -8 0
-13 -8 -13 -7 -1 8 11 14 11 17 0 17 -12 0 -12 2 0 9 11 7 11 9 0 13 -21 7 10
41 31 35 18 -5 21 18 5 42 -5 10 -4 12 3 7 14 -9 15 3 2 24 -5 8 -5 19 -1 25
13 16 7 90 -7 88 -6 -2 -12 2 -12 7 0 6 -5 10 -11 10 -5 0 -7 -4 -4 -10 3 -5
1 -10 -4 -10 -6 0 -11 4 -11 9 0 7 -54 8 -70 1 -3 -1 -8 -2 -11 -2 -3 1 -5 -9
-5 -21 1 -13 -4 -21 -11 -20 -7 2 -13 -2 -13 -8 0 -5 -4 -8 -9 -5 -11 7 -9
-13 3 -33 6 -10 5 -12 -2 -7 -8 5 -10 -11 -7 -55 4 -62 -10 -114 -25 -89 -4 6
-10 11 -14 11 -18 -3 -20 0 -6 9 11 7 11 10 2 10 -10 0 -10 5 -2 20 7 14 7 20
0 20 -5 0 -10 7 -10 15 0 8 -9 15 -21 15 -14 0 -18 4 -12 13 11 18 13 38 2 31
-5 -3 -6 -10 -3 -16 4 -6 -5 -3 -19 8 -15 10 -27 27 -27 37 0 10 -8 17 -21 17
-11 0 -18 4 -15 9 3 4 -3 18 -13 29 -14 17 -20 19 -31 9 -10 -9 -11 -9 -6 1 8
13 -27 12 -41 -2 -12 -12 -11 -109 1 -125 8 -11 8 -13 -1 -8 -8 5 -11 0 -10
-13 1 -11 5 -20 10 -20 4 0 5 -4 2 -10 -3 -5 -1 -10 5 -10 6 0 8 -4 5 -10 -3
-6 1 -7 10 -4 9 4 15 3 13 -2 -4 -11 38 -54 46 -47 3 3 4 -4 1 -15 -2 -15 0
-19 11 -15 8 3 14 0 14 -7 0 -6 4 -8 10 -5 6 4 10 -5 10 -20 0 -15 -4 -24 -10
-20 -5 3 -10 1 -10 -4 0 -6 -7 -11 -15 -11 -8 0 -14 -3 -14 -7 4 -25 -2 -35
-18 -29 -10 4 -14 4 -10 0 4 -4 -1 -13 -11 -21 -10 -9 -11 -11 -2 -7 13 7 13
5 1 -9 -10 -13 -10 -17 -1 -17 9 0 9 -4 -1 -17 -12 -14 -12 -16 1 -9 9 4 8 2
-2 -7 -10 -8 -16 -16 -13 -18 2 -3 -4 -5 -15 -5 -10 0 -16 4 -14 8 3 4 0 8 -5
8 -6 0 -11 -6 -11 -12 0 -10 -3 -9 -9 1 -6 9 -11 10 -15 2 -4 -6 -13 -11 -19
-11 -7 0 -6 4 3 11 12 9 10 10 -8 6 -18 -4 -22 -2 -18 9 3 7 0 13 -6 11 -7 -1
-12 3 -13 10 0 20 -16 28 -26 13 -7 -13 -10 -13 -18 -1 -7 11 -9 11 -14 0 -4
-11 -6 -11 -6 -1 -1 7 -5 11 -9 8 -5 -3 -8 5 -7 17 1 12 7 23 13 23 7 1 17 2
22 3 6 0 9 4 9 9 -3 19 2 33 11 27 15 -9 12 2 -6 19 -9 9 -11 16 -4 16 6 0 8
5 5 10 -3 6 -1 10 5 10 6 0 8 5 4 13 -5 8 -2 8 9 -2 9 -7 17 -10 18 -5 0 5 2
18 5 29 4 24 -6 79 -13 71 -3 -3 -14 -1 -24 5 -16 8 -17 13 -8 31 8 15 8 23 1
26 -5 1 -8 12 -5 22 3 11 9 17 14 14 5 -3 6 2 3 10 -3 9 -10 16 -15 16 -5 0
-9 7 -9 15 0 13 -4 14 -21 4 -17 -9 -20 -8 -14 2 6 9 3 11 -9 6 -10 -4 -22 -7
-28 -7 -6 0 -8 -7 -4 -15 3 -8 1 -15 -5 -15 -6 0 -7 -5 -3 -12 4 -6 3 -8 -4
-4 -6 3 -13 2 -17 -4 -4 -6 -10 -8 -14 -6 -11 7 -8 -38 4 -46 6 -5 6 -8 -2 -8
-6 0 -10 -8 -8 -19 2 -14 -2 -17 -20 -15 -17 1 -22 -2 -18 -12 3 -8 1 -20 -4
-27 -10 -15 -10 -38 0 -54 4 -7 0 -24 -10 -39 -9 -15 -19 -22 -21 -15 -2 6 -8
11 -13 11 -6 0 -8 -4 -5 -9 4 -5 -1 -8 -10 -7 -21 3 -45 36 -37 49 3 6 2 7 -3
4 -19 -11 -34 9 -37 51 -2 23 1 44 7 46 7 3 7 5 -1 5 -6 1 -9 10 -6 21 3 12 0
20 -7 20 -19 0 -40 27 -34 44 4 10 1 16 -7 16 -9 0 -10 3 -4 8 13 10 17 65 4
56 -6 -3 -9 2 -7 12 2 14 -2 18 -16 16 -11 -2 -15 1 -11 7 3 6 1 11 -5 11 -6
0 -9 4 -6 8 2 4 1 14 -5 22 -6 11 -9 11 -9 2 0 -9 -5 -10 -19 -3 -10 6 -21 8
-24 4 -11 -10 -36 18 -30 33 4 11 -6 14 -44 14 -38 0 -50 -4 -50 -15z m402
-505 c-3 -5 -12 -10 -18 -10 -7 0 -6 4 3 10 19 12 23 12 15 0z m769 -116 c10
-10 13 -22 8 -32 -4 -9 -7 -24 -6 -32 1 -8 2 -21 3 -28 0 -7 5 -11 10 -7 14 8
53 -36 46 -53 -3 -8 0 -10 8 -5 6 4 21 6 33 5 15 -2 25 5 34 28 9 23 15 28 21
18 7 -10 9 -9 9 5 0 9 5 17 11 17 5 0 8 4 4 9 -3 6 4 15 16 21 16 9 20 9 14 0
-6 -9 -3 -9 13 -1 27 15 30 14 41 -8 8 -13 6 -23 -5 -37 -15 -18 -15 -18 -10
1 6 19 5 19 -7 3 -8 -10 -18 -14 -23 -10 -4 4 -3 0 4 -9 10 -13 10 -19 -1 -28
-8 -6 -16 -9 -19 -6 -3 3 -13 -5 -24 -17 -10 -12 -13 -18 -6 -14 6 4 12 5 12
1 0 -3 -11 -10 -24 -15 -14 -5 -30 -19 -36 -31 -8 -15 -9 -19 -1 -15 6 4 11 5
11 1 0 -3 -11 -10 -25 -15 -14 -5 -25 -17 -25 -26 0 -10 -5 -14 -16 -10 -10 4
-13 2 -8 -6 5 -8 2 -9 -11 -4 -14 5 -15 4 -7 -6 7 -9 6 -19 -4 -32 -10 -14
-14 -16 -14 -5 -1 24 -21 -18 -25 -52 -3 -21 -1 -28 8 -24 7 4 4 0 -5 -8 -10
-8 -14 -18 -10 -23 4 -4 -2 -2 -12 6 -18 14 -19 13 -13 -2 4 -12 2 -15 -8 -12
-10 4 -12 0 -8 -17 4 -15 3 -20 -5 -15 -7 4 -12 2 -12 -4 0 -7 -5 -6 -14 2
-10 9 -11 15 -2 20 8 6 8 8 -1 8 -7 0 -13 5 -13 11 0 6 7 8 16 5 10 -4 13 -2
8 6 -5 8 -2 9 10 5 14 -5 17 -3 12 8 -3 8 0 15 6 15 6 0 5 6 -3 17 -12 15 -12
16 1 8 13 -7 13 -6 2 7 -7 9 -9 18 -5 20 4 1 20 18 36 36 15 19 27 31 27 27 0
-4 7 1 16 9 8 9 12 20 9 26 -3 5 0 10 7 10 9 0 9 3 -2 10 -8 5 -10 10 -5 10
15 0 10 100 -6 113 -11 10 -11 9 -1 -4 14 -19 6 -30 -16 -22 -10 4 -13 2 -8
-5 5 -8 2 -10 -8 -6 -9 3 -13 11 -9 18 5 8 3 8 -8 0 -19 -16 -65 -12 -61 5 1
7 -2 10 -8 6 -5 -3 -10 -1 -10 4 0 6 6 11 13 11 8 0 9 3 1 8 -13 8 -14 42 -2
42 5 0 6 6 2 13 -5 7 0 6 11 -3 11 -9 16 -10 11 -2 -4 7 -2 12 4 12 6 0 9 4 5
9 -3 5 4 16 15 24 11 7 17 17 13 20 -3 4 -4 7 0 7 3 0 13 -7 21 -16z m-110
-146 c-5 -8 -2 -9 9 -5 11 4 17 1 17 -9 0 -8 -4 -13 -9 -10 -5 4 -7 -3 -4 -14
3 -12 2 -20 -3 -19 -24 4 -32 -4 -30 -32 1 -16 -1 -32 -6 -35 -5 -3 -5 -10 -2
-16 5 -7 -2 -9 -20 -6 -14 3 -29 1 -33 -5 -4 -6 -1 -7 7 -2 9 5 11 4 6 -3 -5
-9 -12 -9 -26 0 -10 7 -17 15 -14 19 2 4 -2 9 -8 12 -8 3 -1 9 14 15 16 7 30
22 34 37 6 25 14 29 43 25 13 -1 13 1 2 14 -10 12 -10 16 -2 16 7 0 10 4 7 9
-4 5 0 12 6 14 19 8 20 8 12 -5z m-864 -108 c0 -5 -5 -10 -11 -10 -5 0 -7 5
-4 10 3 6 8 10 11 10 2 0 4 -4 4 -10z m329 -96 c4 3 13 1 21 -4 11 -7 11 -11
1 -23 -8 -10 -8 -17 -2 -21 6 -4 8 -13 5 -21 -4 -8 -10 -13 -14 -10 -5 3 -12
0 -16 -7 -4 -7 -4 -10 1 -6 4 4 14 3 22 -3 10 -9 13 -8 13 2 0 9 3 10 11 2 13
-13 72 4 63 18 -3 5 0 9 6 9 6 0 9 4 6 9 -3 5 7 11 23 13 34 5 53 0 45 -13 -3
-5 3 -9 13 -10 11 0 13 -3 5 -6 -10 -4 -10 -8 -1 -19 9 -11 9 -14 0 -14 -8 0
-10 -8 -6 -20 4 -11 3 -20 -2 -19 -4 1 -10 0 -13 -1 -3 -1 -15 -3 -27 -4 -15
-2 -20 2 -16 13 4 14 3 14 -9 -1 -10 -12 -18 -14 -32 -6 -14 8 -21 7 -27 -3
-7 -12 -9 -11 -9 1 0 11 -2 12 -8 3 -9 -14 -38 0 -29 13 8 14 -18 34 -45 34
-6 0 -9 3 -6 6 4 3 2 19 -2 35 -5 17 -5 29 1 29 5 0 8 3 8 8 -1 4 0 14 1 22 1
11 3 11 7 2 2 -6 8 -10 12 -8z"/>
<path d="M1517 1633 c-10 -9 -9 -23 1 -23 5 0 9 7 9 15 0 17 -1 18 -10 8z"/>
<path d="M1335 109 c-4 -6 -5 -12 -2 -15 2 -3 7 2 10 11 7 17 1 20 -8 4z"/>
</g>
</svg>
